<?xml version="1.0" encoding="UTF-8"?>
<svg id="Layer_1" xmlns="http://www.w3.org/2000/svg" version="1.1" viewBox="0 0 50.84 27.76">
  <!-- Generator: Adobe Illustrator 30.8.1, SVG Export Plug-In . SVG Version: 2.1.4 Build 1)  -->
  <path d="M50.58,12.88l-3.33-.13c-.02-2.51.69-7.37-3.14-7.3-6.01-.57-6.46,1.58-6.15,6.95l-3.56-.13,3.32-7.47,11.3-1.23L48.77,0l-15.87.39-3.42,3.89-21.9-.95L0,10.61l26.82,6.08h-1.17v1.19h-2.14v.42c-2.8-5.85-12.41-3.61-12.19,3-.12,8.39,13.05,8.39,12.93,0h1.39v2.63h5.7v-2.63h1.98v-1.34l.13.07c-1.76,8.04,10.78,10.78,12.6,2.86h4.79l-.26-10ZM17.79,23.76c-3.2.04-3.2-4.97,0-4.93,3.2-.04,3.2,4.97,0,4.93ZM32.1,17.87h-.75v-.16l.58.13.9-2.02-.72,2.05ZM39.79,23.76c-3.2.04-3.2-4.97,0-4.93,3.2-.04,3.2,4.97,0,4.93ZM44.25,12.64l-3.29-.12v-3.92c-.12-.32,3.07-.06,3.15-.14.38-.05.02,4.06.14,4.19Z"/>
</svg>