<?xml version="1.0" encoding="UTF-8"?>
<svg id="Layer_1" xmlns="http://www.w3.org/2000/svg" version="1.1" viewBox="0 0 41.89 16.62">
  <!-- Generator: Adobe Illustrator 30.8.1, SVG Export Plug-In . SVG Version: 2.1.4 Build 1)  -->
  <path d="M41.73,11.83l-.04-3.3-4.42-3.4h-8.35l.4-2.07-.93.08-.42,1.99h-6.03V1.12c0-.62-.5-1.12-1.12-1.12h-5.83c-.62,0-1.12.5-1.12,1.12v2.37h-6.53V.96h-1v2.53H.89c-.49,0-.89.4-.89.89v7.98c0,.49.4.89.89.89h.45l.03-.08c.17,1.77,1.6,3.19,3.42,3.28.06,0,.11,0,.17,0,1.84,0,3.37-1.39,3.58-3.2h1.36c.2,1.73,1.62,3.11,3.42,3.2.06,0,.11,0,.17,0,1.92,0,3.53-1.51,3.62-3.45.02-.43-.05-.83-.17-1.22h3.88c.62,0,1.12-.5,1.12-1.12v-1.18l3.85-2.3h1.74l-.66,3.13-2.86.17-.19.86,2.86-.13-.22,1.05-3.4.22s-.81,1.2-.86,2.15,1.2,1.96,1.2,1.96l8.9-.86s-1.05-1.2-1.34-2.25c-.29-1.05.24-1.53.24-1.53l-3.67.24.2-1.03,7.51-.33c-.35.53-.57,1.14-.6,1.82-.09,2,1.45,3.69,3.45,3.79.06,0,.11,0,.17,0,1.92,0,3.53-1.51,3.62-3.45.02-.41-.05-.8-.15-1.18ZM4.97,15.45s-.08,0-.12,0c-.7-.03-1.34-.34-1.82-.85-.47-.52-.71-1.19-.68-1.89.07-1.4,1.21-2.5,2.62-2.5.04,0,.08,0,.12,0,1.44.07,2.57,1.3,2.5,2.74-.07,1.4-1.21,2.5-2.62,2.5ZM13.5,15.45s-.08,0-.12,0c-.7-.03-1.34-.34-1.82-.85s-.71-1.19-.68-1.89c.07-1.4,1.21-2.5,2.62-2.5.04,0,.08,0,.12,0,1.44.07,2.57,1.3,2.5,2.74-.07,1.4-1.21,2.5-2.62,2.5ZM19.94,7.81h-4.1v.11h0l.03-5.92h4.08v5.81ZM39.05,9.29h.01s-.08,0-.12,0h.11ZM27.92,10.25l.6-3.07h8.75l.45,2.06h.14c-.52.07-1.01.23-1.45.49l-8.48.52ZM38.27,15.45s-.08,0-.12,0c-.7-.03-1.34-.34-1.82-.85-.47-.52-.71-1.19-.68-1.89.07-1.4,1.21-2.5,2.62-2.5.04,0,.08,0,.12,0,.7.03,1.34.34,1.82.85.47.52.71,1.19.68,1.89-.07,1.4-1.21,2.5-2.62,2.5Z"/>
</svg>