<?xml version="1.0" encoding="UTF-8"?>
<svg id="Layer_1" xmlns="http://www.w3.org/2000/svg" version="1.1" viewBox="0 0 34.29 24">
  <title>Water Tender</title>
  <!-- Generator: Adobe Illustrator 30.8.1, SVG Export Plug-In . SVG Version: 2.1.4 Build 1)  -->
  <path d="M33.33,8.05c-2.31-3.62-4.71-3.99-8.66-3.61l-.03,7.09h-.06c.1.22.02,6.11.03,6.56h.48c-.01.36-.23.7-.25,1.08l-7.79-.09c-.03-.22-.09-.43-.15-.64l5.94.07V4.29H1.61c-.44,0-1.48,0-1.48,7.11.27,7.94.55,6.9,2.28,7.15-1.47,4.83,5.32,7.64,7.26,3.09,1.43,3.63,6.87,2.87,7.38-1.05l7.8.09c.71,4.74,7.59,4.31,7.75-.52,2.39-1.64.96-10.2.75-12.12h-.01ZM6.15,22.49c-3.27.05-3.27-5.48,0-5.44,3.27-.05,3.27,5.48,0,5.44ZM13.18,22.54c-3.27.05-3.27-5.48,0-5.43,3.27-.05,3.27,5.48,0,5.43ZM28.68,22.6c-3.27.05-3.27-5.48,0-5.44,3.27-.05,3.27,5.48,0,5.44ZM26.03,11.54l.03-5.65c3.9-.26,6.31,1.24,6.26,5.72l-6.29-.06Z"/>
</svg>